<?xml version="1.0" encoding="UTF-8"?><svg id="_레이어_2" xmlns="http://www.w3.org/2000/svg" viewBox="0 0 95.31 95.31"><defs><style>.cls-1{fill:#fff;}.cls-1,.cls-2,.cls-3{stroke-width:0px;}.cls-2{fill:#0d131a;}.cls-3{fill:#e60012;}</style></defs><g id="CMYK"><path class="cls-1" d="m47.65,0C21.34,0,0,21.34,0,47.66s21.34,47.66,47.65,47.66,47.66-21.34,47.66-47.66S73.97,0,47.65,0Z"/><path class="cls-3" d="m16.93,16.93c8.22-8.21,19.12-12.73,30.72-12.73s22.52,4.52,30.73,12.73c7.45,7.44,11.81,17.09,12.56,27.48h-22.88c-.67-4.28-2.68-8.24-5.8-11.36-3.91-3.89-9.1-6.05-14.61-6.05-10.28,0-18.82,7.55-20.4,17.41H4.35c.78-10.39,5.16-20.05,12.58-27.48Z"/><path class="cls-2" d="m47.65,0C21.34,0,0,21.34,0,47.66s21.34,47.66,47.65,47.66,47.66-21.34,47.66-47.66S73.97,0,47.65,0Zm-30.72,16.93c8.22-8.21,19.12-12.73,30.72-12.73s22.52,4.52,30.73,12.73c7.45,7.44,11.81,17.09,12.56,27.48h-22.88c-.67-4.28-2.68-8.24-5.8-11.36-3.91-3.89-9.1-6.05-14.61-6.05-10.28,0-18.82,7.55-20.4,17.41H4.35c.78-10.39,5.16-20.05,12.58-27.48Zm44.89,30.73c0,7.81-6.35,14.16-14.16,14.16-3.79,0-7.34-1.48-9.99-4.15-2.68-2.66-4.12-6.23-4.12-10.01s1.44-7.33,4.12-10.01c2.65-2.67,6.2-4.14,9.99-4.14s7.33,1.46,10.01,4.14c2.68,2.68,4.15,6.23,4.15,10.01Zm-14.16,43.45c-11.6,0-22.5-4.52-30.72-12.72-7.42-7.44-11.8-17.1-12.58-27.48h22.91c.67,4.28,2.69,8.23,5.79,11.34,3.92,3.91,9.11,6.06,14.61,6.06s10.7-2.14,14.61-6.06c3.12-3.12,5.13-7.06,5.8-11.34h22.88c-1.65,22.43-20.42,40.2-43.29,40.2Z"/><path class="cls-2" d="m47.65,55.93c4.56,0,8.28-3.7,8.28-8.27s-3.72-8.27-8.28-8.27-8.27,3.7-8.27,8.27,3.71,8.27,8.27,8.27Z"/><path class="cls-1" d="m47.65,54.04c3.52,0,6.38-2.85,6.38-6.38s-2.87-6.38-6.38-6.38-6.38,2.85-6.38,6.38,2.86,6.38,6.38,6.38Z"/></g></svg>